<?xml version="1.0" encoding="utf-8"?>
<!-- Generator: Adobe Illustrator 19.0.0, SVG Export Plug-In . SVG Version: 6.00 Build 0)  -->
<svg version="1.1" id="Livello_1" xmlns="http://www.w3.org/2000/svg" xmlns:xlink="http://www.w3.org/1999/xlink" x="0px" y="0px"
	 viewBox="-412 587.5 16 16" style="enable-background:new -412 587.5 16 16;" xml:space="preserve">
<style type="text/css">
	.st0{fill:#828282;}
</style>
<path class="st0" d="M-397,587.7h-14c-0.5,0-0.9,0.4-0.9,0.9v14c0,0.5,0.4,0.9,0.9,0.9h10h4c0.5,0,0.9-0.4,0.9-0.9v-14
	C-396.1,588.1-396.5,587.7-397,587.7z M-398.1,593c-0.5,3.1-5,7.9-6.5,7.7c-1.7,0.4-2.6-5.1-3.9-7.6l-1.2,0.5
	c-0.5,0.1-0.4-0.2-0.4-0.5c1.3-1.2,2.5-3.2,3.8-2.8c2.3,0.6,1.3,4.9,2.6,6.9c1.8-1,2.9-3.1,2.4-4.1c-0.1-0.3,0-1.1-1.4-0.4
	c-0.4,0.2-0.4-0.5-0.3-0.6c1.3-1.5,2.1-2.1,3-2C-399.2,590-397.9,590.9-398.1,593z"/>
</svg>
