<?xml version="1.0" encoding="utf-8"?>
<!-- Generator: Adobe Illustrator 19.0.0, SVG Export Plug-In . SVG Version: 6.00 Build 0)  -->
<svg version="1.1" id="Livello_1" xmlns="http://www.w3.org/2000/svg" xmlns:xlink="http://www.w3.org/1999/xlink" x="0px" y="0px"
	 viewBox="-412 587.5 16 16" style="enable-background:new -412 587.5 16 16;" xml:space="preserve">
<style type="text/css">
	.st0{fill:#828282;}
</style>
<g>
	<path class="st0" d="M-397.2,602.4c0.4-0.4,0.6-0.6,0.7-1.1c0.1-0.4,0.4-0.9,0.4-1.8c0-1,0-1.3,0-3.9c0-2.6,0-2.9,0-3.9
		c-0.1-1-0.2-1.5-0.4-1.8c-0.2-0.5-0.4-0.7-0.7-1.1c-0.4-0.4-0.6-0.6-1.1-0.7c-0.4-0.1-0.9-0.4-1.8-0.4c-1,0-1.3,0-3.9,0
		s-2.9,0-3.9,0c-1,0.1-1.5,0.2-1.8,0.4c-0.5,0.2-0.7,0.4-1.1,0.7c-0.4,0.4-0.6,0.6-0.7,1.1c-0.1,0.4-0.4,0.9-0.4,1.8
		c0,1,0,1.3,0,3.9c0,2.6,0,2.9,0,3.9c0.1,1,0.2,1.5,0.4,1.8c0.2,0.5,0.4,0.7,0.7,1.1c0.4,0.4,0.6,0.6,1.1,0.7
		c0.4,0.1,0.9,0.4,1.8,0.4c1,0,1.3,0,3.9,0s2.9,0,3.9,0c1-0.1,1.5-0.2,1.8-0.4C-397.8,602.9-397.5,602.7-397.2,602.4z M-404,600.5
		c-2.8,0-5-2.2-5-5s2.3-5,5-5s5,2.2,5,5S-401.2,600.5-404,600.5z M-400,590.3c0-0.6,0.5-1.1,1.1-1.1c0.6,0,1.1,0.5,1.1,1.1
		c0,0.6-0.5,1.1-1.1,1.1C-399.5,591.4-400,590.9-400,590.3z"/>
	<path class="st0" d="M-404,592.4c-1.7,0-3.2,1.5-3.2,3.2c0,1.7,1.3,3.2,3.2,3.2s3.2-1.5,3.2-3.2
		C-400.8,593.8-402.3,592.4-404,592.4z"/>
</g>
</svg>
