<?xml version="1.0" encoding="utf-8"?>
<!-- Generator: Adobe Illustrator 19.0.0, SVG Export Plug-In . SVG Version: 6.00 Build 0)  -->
<svg version="1.1" id="Livello_1" xmlns="http://www.w3.org/2000/svg" xmlns:xlink="http://www.w3.org/1999/xlink" x="0px" y="0px"
	 viewBox="-412 587.5 16 16" style="enable-background:new -412 587.5 16 16;" xml:space="preserve">
<style type="text/css">
	.st0{fill:#828282;}
</style>
<g>
	<path id="Skype" class="st0" d="M-396.6,596.8c0.1-0.4,0.1-0.7,0.1-1.2c0-4.1-3.3-7.5-7.5-7.5c-0.4,0-0.8,0-1.2,0.1
		c-0.7-0.4-1.5-0.7-2.3-0.7c-2.5,0-4.5,2-4.5,4.5c0,0.9,0.2,1.7,0.7,2.3c-0.1,0.4-0.1,0.7-0.1,1.2c0,4.1,3.3,7.4,7.4,7.4
		c0.4,0,0.8,0,1.2-0.1c0.7,0.4,1.5,0.7,2.3,0.7c2.5,0,4.5-2,4.5-4.5C-395.9,598.3-396.2,597.5-396.6,596.8z M-400.4,599.1
		c-0.3,0.4-0.8,0.8-1.4,1c-0.6,0.2-1.3,0.4-2.1,0.4c-1,0-1.8-0.1-2.5-0.5c-0.4-0.2-0.8-0.6-1.1-1c-0.3-0.4-0.4-0.8-0.4-1.2
		c0-0.2,0.1-0.4,0.3-0.6c0.1-0.1,0.4-0.2,0.7-0.2c0.2,0,0.4,0.1,0.6,0.2c0.1,0.1,0.3,0.3,0.4,0.6c0.1,0.3,0.3,0.5,0.4,0.7
		c0.1,0.2,0.4,0.4,0.6,0.5c0.3,0.1,0.6,0.2,1,0.2c0.6,0,1.1-0.1,1.5-0.4c0.4-0.2,0.5-0.6,0.5-1c0-0.3-0.1-0.5-0.3-0.7
		c-0.2-0.2-0.4-0.4-0.8-0.4c-0.3-0.1-0.7-0.2-1.2-0.3c-0.7-0.1-1.3-0.4-1.8-0.6c-0.5-0.2-0.9-0.5-1.2-0.9c-0.3-0.4-0.4-0.8-0.4-1.4
		c0-0.5,0.1-1,0.4-1.4c0.3-0.4,0.7-0.7,1.3-1s1.2-0.3,2.1-0.3c0.6,0,1.2,0.1,1.6,0.2c0.4,0.1,0.8,0.4,1.1,0.6s0.5,0.5,0.7,0.7
		c0.1,0.3,0.2,0.5,0.2,0.7s-0.1,0.4-0.3,0.7c-0.1,0.2-0.4,0.3-0.7,0.3c-0.2,0-0.4-0.1-0.6-0.1c-0.1-0.1-0.3-0.3-0.4-0.5
		c-0.1-0.4-0.4-0.6-0.7-0.8c-0.2-0.2-0.7-0.3-1.2-0.3s-1,0.1-1.2,0.3s-0.4,0.4-0.4,0.7c0,0.1,0.1,0.4,0.1,0.4
		c0.1,0.1,0.2,0.2,0.4,0.4c0.2,0.1,0.4,0.1,0.6,0.2c0.2,0.1,0.5,0.1,1,0.2c0.6,0.1,1.1,0.3,1.5,0.4c0.4,0.1,0.9,0.3,1.2,0.5
		c0.3,0.2,0.6,0.5,0.7,0.8s0.3,0.7,0.3,1.2C-399.9,598.1-400.1,598.6-400.4,599.1z"/>
</g>
</svg>
