<?xml version="1.0" encoding="utf-8"?>
<!-- Generator: Adobe Illustrator 19.0.0, SVG Export Plug-In . SVG Version: 6.00 Build 0)  -->
<svg version="1.1" id="Livello_1" xmlns="http://www.w3.org/2000/svg" xmlns:xlink="http://www.w3.org/1999/xlink" x="0px" y="0px"
	 viewBox="-412 587.5 16 16" style="enable-background:new -412 587.5 16 16;" xml:space="preserve">
<style type="text/css">
	.st0{fill:#828282;}
</style>
<path class="st0" d="M-411.6,595.2C-411.6,595.2-411.6,595.2-411.6,595.2l-0.2,0.9l0.1,0.8c0,0,0,0.1,0.1,0.1c0,0,0.1,0,0.1-0.1l0,0
	v0c0,0,0,0,0,0l0.1-0.8L-411.6,595.2C-411.5,595.2-411.6,595.2-411.6,595.2z M-410.9,594.7C-411,594.7-411,594.6-410.9,594.7
	c-0.1-0.1-0.1,0-0.1,0c0,0-0.2,1.4-0.2,1.4l0.2,1.4c0,0,0,0.1,0.1,0.1c0,0,0.1,0,0.1-0.1l0.2-1.4L-410.9,594.7z M-408.5,593.4
	c-0.1,0-0.1,0.1-0.1,0.1l-0.1,2.6l0.1,1.7c0,0.1,0.1,0.1,0.1,0.1c0.1,0,0.1-0.1,0.1-0.1v0l0.1-1.7l-0.1-2.6
	C-408.4,593.5-408.5,593.4-408.5,593.4z M-409.8,594.3C-409.8,594.3-409.9,594.3-409.8,594.3l-0.2,1.8l0.1,1.6c0,0.1,0,0.1,0.1,0.1
	c0,0,0.1,0,0.1-0.1l0.2-1.6L-409.8,594.3C-409.7,594.3-409.7,594.3-409.8,594.3z M-407.3,597.9c0.1,0,0.1-0.1,0.1-0.1l0.1-1.6
	l-0.1-3.4c0-0.1-0.1-0.1-0.1-0.1c-0.1,0-0.1,0.1-0.1,0.1c0,0-0.1,3.4-0.1,3.4l0.1,1.6C-407.4,597.8-407.4,597.9-407.3,597.9z
	 M-404.7,597.9c0.1,0,0.2-0.1,0.2-0.2v0v0l0.1-1.6l-0.1-3.9c0-0.1-0.1-0.2-0.2-0.2c-0.1,0-0.2,0.1-0.2,0.2l-0.1,3.9
	c0,0,0.1,1.6,0.1,1.6C-404.9,597.8-404.8,597.9-404.7,597.9z M-406,597.9c0.1,0,0.2-0.1,0.2-0.2v0l0.1-1.6l-0.1-3.4
	c0-0.1-0.1-0.2-0.2-0.2c-0.1,0-0.2,0.1-0.2,0.2l-0.1,3.4l0.1,1.6C-406.2,597.8-406.1,597.9-406,597.9z M-409.2,597.9
	c0.1,0,0.1,0,0.1-0.1l0.1-1.7l-0.1-1.6c0-0.1,0-0.1-0.1-0.1c-0.1,0-0.1,0-0.1,0.1l-0.1,1.6l0.1,1.7
	C-409.3,597.8-409.2,597.9-409.2,597.9z M-410.4,597.8C-410.4,597.8-410.3,597.7-410.4,597.8l0.2-1.7l-0.2-1.7c0,0,0-0.1-0.1-0.1
	c0,0-0.1,0-0.1,0.1c0,0-0.1,1.7-0.1,1.7L-410.4,597.8C-410.5,597.7-410.4,597.8-410.4,597.8z M-405.3,592.6c-0.1,0-0.2,0.1-0.2,0.2
	l-0.1,3.3l0.1,1.6c0,0.1,0.1,0.2,0.2,0.2c0.1,0,0.2-0.1,0.2-0.2v0l0.1-1.6l-0.1-3.3C-405.2,592.7-405.2,592.6-405.3,592.6z
	 M-407.9,597.9c0.1,0,0.1-0.1,0.1-0.1l0.1-1.6l-0.1-3.2c0-0.1-0.1-0.1-0.1-0.1c-0.1,0-0.1,0.1-0.1,0.1c0,0-0.1,3.2-0.1,3.2l0.1,1.6
	C-408,597.8-408,597.9-407.9,597.9z M-406.5,597.7L-406.5,597.7l0.1-1.6l-0.1-3.5c0-0.1-0.1-0.2-0.2-0.2c-0.1,0-0.2,0.1-0.2,0.2
	l-0.1,3.5l0.1,1.6c0,0.1,0.1,0.2,0.2,0.2C-406.6,597.9-406.5,597.8-406.5,597.7L-406.5,597.7z M-398.1,594.1c-0.3,0-0.5,0.1-0.7,0.1
	c-0.2-1.7-1.6-3.1-3.4-3.1c-0.4,0-0.9,0.1-1.2,0.2c-0.1,0.1-0.2,0.1-0.2,0.2v6.1c0,0.1,0.1,0.2,0.2,0.2c0,0,5.3,0,5.3,0
	c1.1,0,1.9-0.9,1.9-1.9S-397.1,594.1-398.1,594.1z M-404,591.6c-0.1,0-0.2,0.1-0.2,0.2l-0.1,4.3l0.1,1.6c0,0.1,0.1,0.2,0.2,0.2
	c0.1,0,0.2-0.1,0.2-0.2v0l0.1-1.6l-0.1-4.3C-403.8,591.7-403.9,591.6-404,591.6z M-410.2,599.1c-0.2-0.1-0.3-0.1-0.3-0.2
	c0-0.1,0.1-0.1,0.2-0.1c0.1,0,0.2,0.1,0.3,0.1l0.2-0.2c-0.1-0.1-0.3-0.2-0.5-0.2c-0.3,0-0.5,0.2-0.5,0.4c0,0.3,0.2,0.4,0.4,0.4
	c0.3,0.1,0.3,0.1,0.3,0.2c0,0.1-0.1,0.2-0.2,0.2c-0.1,0-0.3,0-0.4-0.2l-0.2,0.2c0.1,0.2,0.3,0.3,0.6,0.3c0.4,0,0.6-0.2,0.6-0.5
	C-409.7,599.2-410,599.2-410.2,599.1z M-408.9,598.5c-0.4,0-0.6,0.3-0.6,0.7s0.2,0.7,0.6,0.7s0.6-0.3,0.6-0.7
	S-408.5,598.5-408.9,598.5z M-408.9,599.7c-0.2,0-0.3-0.2-0.3-0.5c0-0.3,0.1-0.5,0.3-0.5c0.2,0,0.3,0.2,0.3,0.5
	C-408.6,599.5-408.7,599.7-408.9,599.7z M-407.1,599.3c0,0.2-0.1,0.4-0.3,0.4c-0.2,0-0.3-0.1-0.3-0.4v-0.8h-0.3v0.8
	c0,0.4,0.2,0.6,0.6,0.6c0.4,0,0.6-0.2,0.6-0.7v-0.8h-0.3C-407.1,598.5-407.1,599.3-407.1,599.3z M-405.6,599.1c0,0.1,0,0.3,0,0.3
	c0,0-0.1-0.1-0.1-0.2l-0.5-0.8h-0.3v1.4h0.3v-0.6c0-0.1,0-0.3,0-0.3c0,0,0.1,0.1,0.1,0.2l0.5,0.8h0.3v-1.4h-0.3
	C-405.6,598.5-405.6,599.1-405.6,599.1z M-404.5,598.5h-0.4v1.4h0.4c0.4,0,0.7-0.2,0.7-0.7C-403.8,598.7-404.1,598.5-404.5,598.5z
	 M-404.6,599.7h-0.1v-0.9h0.2c0.3,0,0.4,0.1,0.4,0.4C-404.1,599.5-404.3,599.7-404.6,599.7z M-402.9,598.8c0.1,0,0.2,0.1,0.3,0.2
	l0.3-0.1c-0.1-0.2-0.3-0.3-0.5-0.3c-0.4,0-0.6,0.3-0.6,0.7c0,0.4,0.3,0.7,0.6,0.7c0.3,0,0.4-0.1,0.5-0.3l-0.2-0.1
	c-0.1,0.1-0.2,0.2-0.3,0.2c-0.2,0-0.3-0.2-0.3-0.5C-403.3,599-403.2,598.8-402.9,598.8z M-401.9,598.5h-0.3v1.4h0.9v-0.3h-0.6V598.5
	z M-400.6,598.5c-0.4,0-0.6,0.3-0.6,0.7s0.2,0.7,0.6,0.7c0.4,0,0.6-0.3,0.6-0.7S-400.2,598.5-400.6,598.5z M-400.6,599.7
	c-0.2,0-0.3-0.2-0.3-0.5c0-0.3,0.1-0.5,0.3-0.5c0.2,0,0.3,0.2,0.3,0.5C-400.2,599.5-400.3,599.7-400.6,599.7z M-398.8,599.3
	c0,0.2-0.1,0.4-0.3,0.4c-0.2,0-0.3-0.1-0.3-0.4v-0.8h-0.3v0.8c0,0.4,0.2,0.6,0.6,0.6c0.4,0,0.6-0.2,0.6-0.7v-0.8h-0.3V599.3z
	 M-397.7,598.5h-0.4v1.4h0.4c0.4,0,0.7-0.2,0.7-0.7C-397,598.7-397.3,598.5-397.7,598.5z M-397.7,599.7h-0.1v-0.9h0.2
	c0.3,0,0.4,0.1,0.4,0.4C-397.3,599.5-397.4,599.7-397.7,599.7z"/>
</svg>
