<?xml version="1.0" encoding="utf-8"?>
<!-- Generator: Adobe Illustrator 19.0.0, SVG Export Plug-In . SVG Version: 6.00 Build 0)  -->
<svg version="1.1" id="Livello_1" xmlns="http://www.w3.org/2000/svg" xmlns:xlink="http://www.w3.org/1999/xlink" x="0px" y="0px"
	 viewBox="-412 587.5 16 16" style="enable-background:new -412 587.5 16 16;" xml:space="preserve">
<style type="text/css">
	.st0{fill:#828282;}
</style>
<path class="st0" d="M-397,587.7h-14c-0.5,0-0.9,0.4-0.9,0.9v14c0,0.5,0.4,0.9,0.9,0.9h7.5v-6.1h-2.1v-2.4h2.1v-1.8
	c0-2,1.2-3.1,3.1-3.1c0.9,0,1.6,0.1,1.8,0.1v2.1l-1.3,0c-1,0-1.2,0.5-1.2,1.2v1.5h2.4l-0.3,2.4h-2v6.1h4c0.5,0,0.9-0.4,0.9-0.9v-14
	C-396.1,588.1-396.5,587.7-397,587.7z"/>
</svg>
