<?xml version="1.0" encoding="utf-8"?>
<!-- Generator: Adobe Illustrator 19.0.0, SVG Export Plug-In . SVG Version: 6.00 Build 0)  -->
<svg version="1.1" id="Livello_1" xmlns="http://www.w3.org/2000/svg" xmlns:xlink="http://www.w3.org/1999/xlink" x="0px" y="0px"
	 viewBox="0 0 234 68.7" style="enable-background:new 0 0 234 68.7;" xml:space="preserve">
<g id="XMLID_1_">
	<g id="XMLID_85_">
		<g id="XMLID_86_">
			<path id="XMLID_262_" d="M7.5,9.7H14l5.3,8.6l5.3-8.6h6.5V32H25V19.2l-5.7,8.7h-0.1l-5.7-8.7V32H7.5V9.7z"/>
		</g>
		<g id="XMLID_88_">
			<path id="XMLID_258_" d="M43,9.6h6L58.4,32h-6.6l-1.6-4h-8.6L40,32h-6.5L43,9.6z M48.4,23.3l-2.5-6.3l-2.5,6.3H48.4z"/>
		</g>
		<g id="XMLID_91_">
			<path id="XMLID_254_" d="M60.7,9.7h10.6c1.7,0,3.2,0.2,4.4,0.6c1.2,0.4,2.2,1,2.9,1.8c1.3,1.3,2,3,2,5.2v0.1
				c0,1.7-0.4,3.1-1.2,4.3c-0.8,1.1-1.9,2-3.3,2.6l5.3,7.8h-7.1l-4.5-6.8h-0.1h-2.6V32h-6.2V9.7z M71,20.4c1.1,0,1.9-0.2,2.5-0.7
				c0.6-0.5,0.9-1.1,0.9-1.9v-0.1c0-0.9-0.3-1.6-0.9-2c-0.6-0.4-1.4-0.7-2.5-0.7h-4v5.4H71z"/>
		</g>
		<g id="XMLID_94_">
			<path id="XMLID_251_" d="M89.2,15.1h-6.7V9.7h19.6v5.4h-6.7V32h-6.2V15.1z"/>
		</g>
		<g id="XMLID_96_">
			<path id="XMLID_248_" d="M105.1,9.7h6.2V32h-6.2V9.7z"/>
		</g>
		<g id="XMLID_98_">
			<path id="XMLID_245_" d="M115.5,9.7h5.8l9.2,11.8V9.7h6.1V32h-5.4l-9.6-12.2V32h-6.1V9.7z"/>
		</g>
		<g id="XMLID_100_">
			<path id="XMLID_241_" d="M7.5,35.5H18c1.7,0,3.2,0.2,4.4,0.6c1.2,0.4,2.2,1,2.9,1.8c1.3,1.3,2,3,2,5.2v0.1c0,1.7-0.4,3.1-1.2,4.3
				c-0.8,1.1-1.9,2-3.3,2.6l5.3,7.8h-7.1L16.4,51h-0.1h-2.6v6.8H7.5V35.5z M17.7,46.2c1.1,0,1.9-0.2,2.5-0.7
				c0.6-0.5,0.9-1.1,0.9-1.9v-0.1c0-0.9-0.3-1.6-0.9-2c-0.6-0.4-1.4-0.7-2.5-0.7h-4v5.4H17.7z"/>
		</g>
		<g id="XMLID_103_">
			<path id="XMLID_238_" d="M29.7,35.5h6.2v22.3h-6.2V35.5z"/>
		</g>
		<g id="XMLID_105_">
			<path id="XMLID_235_" d="M39.1,35.5h5.8l9.2,11.8V35.5h6.1v22.3h-5.4l-9.6-12.2v12.2h-6.1V35.5z"/>
		</g>
		<g id="XMLID_107_">
			<path id="XMLID_231_" d="M71.1,35.3h6l9.5,22.5h-6.6l-1.6-4h-8.6l-1.6,4h-6.5L71.1,35.3z M76.5,49L74,42.7L71.5,49H76.5z"/>
		</g>
		<g id="XMLID_110_">
			<path id="XMLID_228_" d="M87.9,35.5H94v16.9h10.8v5.4h-17V35.5z"/>
		</g>
		<g id="XMLID_112_">
			<path id="XMLID_224_" d="M106.7,35.5h8.6c2,0,3.8,0.3,5.3,0.8c1.6,0.5,2.9,1.3,4,2.3c1.1,1,1.9,2.1,2.5,3.5
				c0.6,1.4,0.8,2.8,0.8,4.4v0.1c0,1.6-0.3,3.1-0.9,4.5c-0.6,1.4-1.4,2.6-2.5,3.6c-1.1,1-2.4,1.8-4,2.3c-1.6,0.6-3.4,0.8-5.4,0.8
				h-8.5V35.5z M115.4,52.3c1.9,0,3.3-0.5,4.5-1.5c1.1-1,1.7-2.4,1.7-4.2v-0.1c0-1.8-0.6-3.2-1.7-4.2c-1.1-1-2.6-1.5-4.5-1.5h-2.5
				v11.3H115.4z"/>
		</g>
		<g id="XMLID_115_">
			<path id="XMLID_221_" d="M130.4,35.5h6.2v22.3h-6.2V35.5z"/>
		</g>
	</g>
	<g id="XMLID_2_">
		<rect id="XMLID_134_" x="142.5" y="9.7" width="1.2" height="48.1"/>
	</g>
	<g id="XMLID_51_">
		<g id="XMLID_52_">
			<path id="XMLID_215_" d="M150,22.2c-0.1-0.1-0.2-0.2-0.2-0.4c0-0.3,0.2-0.5,0.5-0.5c0.1,0,0.2,0.1,0.3,0.1
				c1.3,1.2,2.6,1.7,4.3,1.7c1.9,0,3.3-1.1,3.3-2.6v0c0-1.4-0.7-2.2-3.6-2.7c-3.1-0.6-4.3-1.7-4.3-3.6v0c0-1.9,1.7-3.4,4.1-3.4
				c1.7,0,2.9,0.4,4.1,1.3c0.1,0.1,0.2,0.2,0.2,0.4c0,0.3-0.2,0.5-0.5,0.5c-0.1,0-0.2,0-0.3-0.1c-1.1-0.9-2.2-1.2-3.5-1.2
				c-1.9,0-3.1,1.1-3.1,2.4v0c0,1.4,0.7,2.2,3.8,2.8c3,0.6,4.2,1.7,4.2,3.5v0c0,2.1-1.8,3.5-4.3,3.5C153,24,151.5,23.4,150,22.2z"/>
		</g>
		<g id="XMLID_54_">
			<path id="XMLID_211_" d="M161.3,19.2L161.3,19.2c0-2.7,2-4.9,4.8-4.9c2.8,0,4.8,2.2,4.8,4.9v0c0,2.6-2,4.9-4.8,4.9
				C163.3,24,161.3,21.8,161.3,19.2z M170,19.2L170,19.2c0-2.3-1.7-4.1-3.9-4.1c-2.2,0-3.8,1.8-3.8,4v0c0,2.3,1.7,4.1,3.9,4.1
				C168.4,23.2,170,21.4,170,19.2z"/>
		</g>
		<g id="XMLID_57_">
			<path id="XMLID_208_" d="M181.4,23.4c0,0.3-0.2,0.5-0.4,0.5c-0.3,0-0.5-0.2-0.5-0.5v-1.4c-0.6,1.1-1.7,2-3.4,2
				c-2.4,0-3.8-1.6-3.8-3.9v-5.4c0-0.3,0.2-0.5,0.4-0.5s0.5,0.2,0.5,0.5V20c0,1.9,1.1,3.2,3,3.2c1.8,0,3.3-1.4,3.3-3.3v-5
				c0-0.3,0.2-0.5,0.4-0.5s0.5,0.2,0.5,0.5V23.4z"/>
		</g>
		<g id="XMLID_59_">
			<path id="XMLID_205_" d="M184.6,14.8c0-0.3,0.2-0.5,0.4-0.5s0.5,0.2,0.5,0.5v1.4c0.6-1.1,1.7-2,3.4-2c2.4,0,3.8,1.6,3.8,3.9v5.4
				c0,0.3-0.2,0.5-0.4,0.5s-0.5-0.2-0.5-0.5v-5.2c0-1.9-1.1-3.2-3-3.2c-1.8,0-3.3,1.4-3.3,3.3v5c0,0.3-0.2,0.5-0.4,0.5
				c-0.3,0-0.5-0.2-0.5-0.5V14.8z"/>
		</g>
		<g id="XMLID_61_">
			<path id="XMLID_201_" d="M204.4,23.4c0,0.3-0.2,0.5-0.4,0.5s-0.5-0.2-0.5-0.5v-1.7c-0.8,1.2-2,2.3-3.9,2.3
				c-2.3,0-4.6-1.8-4.6-4.9v0c0-3.1,2.3-4.9,4.6-4.9c1.9,0,3.1,1.1,3.9,2.2v-5.7c0-0.3,0.2-0.5,0.4-0.5s0.5,0.2,0.5,0.5V23.4z
				 M196.1,19.1L196.1,19.1c0,2.5,1.7,4.1,3.7,4.1c1.9,0,3.8-1.6,3.8-4v0c0-2.4-1.9-4-3.8-4C197.7,15.1,196.1,16.6,196.1,19.1z"/>
		</g>
		<g id="XMLID_64_">
			<path id="XMLID_197_" d="M150.5,28.6c0-0.3,0.2-0.5,0.5-0.5h3.8c4,0,6.8,2.8,6.8,6.4v0c0,3.6-2.8,6.4-6.8,6.4H151
				c-0.3,0-0.5-0.2-0.5-0.5V28.6z M154.8,40.1c3.6,0,5.8-2.4,5.8-5.5v0c0-3.1-2.3-5.6-5.8-5.6h-3.3v11.1H154.8z"/>
		</g>
		<g id="XMLID_67_">
			<path id="XMLID_193_" d="M168.5,41.2c-2.5,0-4.6-2-4.6-4.9v0c0-2.7,1.9-4.9,4.5-4.9c2.6,0,4.3,2.2,4.3,4.9c0,0.2-0.2,0.4-0.4,0.4
				h-7.4c0.2,2.3,1.8,3.7,3.7,3.7c1.3,0,2.3-0.6,3-1.3c0.1-0.1,0.2-0.1,0.3-0.1c0.2,0,0.4,0.2,0.4,0.4c0,0.1,0,0.2-0.1,0.3
				C171.2,40.6,170.2,41.2,168.5,41.2z M171.7,35.9c-0.1-1.9-1.2-3.6-3.4-3.6c-1.9,0-3.3,1.6-3.5,3.6H171.7z"/>
		</g>
		<g id="XMLID_70_">
			<path id="XMLID_190_" d="M174.5,40c-0.1-0.1-0.2-0.2-0.2-0.3c0-0.2,0.2-0.4,0.4-0.4c0.1,0,0.2,0,0.3,0.1c1,0.7,2,1.1,3.1,1.1
				c1.3,0,2.3-0.7,2.3-1.8v0c0-1.1-1.2-1.5-2.5-1.9c-1.5-0.4-3.2-0.9-3.2-2.6v0c0-1.5,1.3-2.6,3.1-2.6c1,0,2.1,0.3,3,0.8
				c0.1,0.1,0.2,0.2,0.2,0.4c0,0.2-0.2,0.4-0.4,0.4c-0.1,0-0.2,0-0.3-0.1c-0.8-0.5-1.7-0.8-2.6-0.8c-1.3,0-2.1,0.7-2.1,1.6v0
				c0,1,1.3,1.4,2.6,1.8c1.5,0.4,3.1,1,3.1,2.6v0c0,1.7-1.4,2.7-3.2,2.7C176.9,41.2,175.5,40.7,174.5,40z"/>
		</g>
		<g id="XMLID_72_">
			<path id="XMLID_186_" d="M184.1,28.4c0-0.3,0.2-0.6,0.6-0.6s0.6,0.2,0.6,0.6v0.3c0,0.3-0.3,0.6-0.6,0.6s-0.6-0.2-0.6-0.6V28.4z
				 M184.2,32c0-0.3,0.2-0.5,0.4-0.5s0.5,0.2,0.5,0.5v8.6c0,0.3-0.2,0.5-0.4,0.5c-0.3,0-0.5-0.2-0.5-0.5V32z"/>
		</g>
		<g id="XMLID_75_">
			<path id="XMLID_182_" d="M188.5,42.7c-0.1-0.1-0.2-0.2-0.2-0.4c0-0.2,0.2-0.4,0.5-0.4c0.1,0,0.2,0,0.3,0.1
				c1.1,0.8,2.3,1.2,3.6,1.2c2.2,0,3.7-1.2,3.7-3.6v-1.4c-0.8,1.2-2.1,2.2-3.9,2.2c-2.3,0-4.5-1.7-4.5-4.4v0c0-2.7,2.2-4.5,4.5-4.5
				c1.9,0,3.1,1,3.9,2.1V32c0-0.3,0.2-0.5,0.4-0.5c0.3,0,0.5,0.2,0.5,0.5v7.5c0,1.4-0.4,2.4-1.2,3.2c-0.8,0.8-2,1.3-3.4,1.3
				C191.1,44,189.7,43.5,188.5,42.7z M196.3,35.9L196.3,35.9c0-2.2-1.9-3.6-3.9-3.6c-2,0-3.6,1.4-3.6,3.5v0c0,2.1,1.7,3.6,3.6,3.6
				C194.4,39.4,196.3,38,196.3,35.9z"/>
		</g>
		<g id="XMLID_78_">
			<path id="XMLID_179_" d="M200.4,32c0-0.3,0.2-0.5,0.4-0.5c0.3,0,0.5,0.2,0.5,0.5v1.4c0.6-1.1,1.7-2,3.4-2c2.4,0,3.8,1.6,3.8,3.9
				v5.4c0,0.3-0.2,0.5-0.4,0.5s-0.5-0.2-0.5-0.5v-5.2c0-1.9-1.1-3.2-3-3.2c-1.8,0-3.3,1.4-3.3,3.3v5c0,0.3-0.2,0.5-0.4,0.5
				s-0.5-0.2-0.5-0.5V32z"/>
		</g>
		<g id="XMLID_80_">
			<path id="XMLID_175_" d="M215.5,41.2c-2.5,0-4.6-2-4.6-4.9v0c0-2.7,1.9-4.9,4.5-4.9c2.6,0,4.3,2.2,4.3,4.9c0,0.2-0.2,0.4-0.4,0.4
				h-7.4c0.2,2.3,1.8,3.7,3.7,3.7c1.3,0,2.3-0.6,3-1.3c0.1-0.1,0.2-0.1,0.3-0.1c0.2,0,0.4,0.2,0.4,0.4c0,0.1,0,0.2-0.1,0.3
				C218.2,40.6,217.1,41.2,215.5,41.2z M218.6,35.9c-0.1-1.9-1.2-3.6-3.4-3.6c-1.9,0-3.3,1.6-3.5,3.6H218.6z"/>
		</g>
		<g id="XMLID_83_">
			<path id="XMLID_172_" d="M222.1,32c0-0.3,0.2-0.5,0.4-0.5s0.5,0.2,0.5,0.5v2.3c0.8-1.8,2.4-2.8,3.8-2.8c0.3,0,0.5,0.2,0.5,0.5
				c0,0.3-0.2,0.5-0.5,0.5c-2,0.2-3.8,1.7-3.8,4.7v3.5c0,0.3-0.2,0.5-0.4,0.5c-0.3,0-0.5-0.2-0.5-0.5V32z"/>
		</g>
	</g>
	<g id="XMLID_18_">
		<g id="XMLID_3_">
			<path id="XMLID_131_" d="M156,58c-0.3,0-0.7,0-1-0.1c-2.8-0.6-4.5-3.3-4-6l0,0c0.6-2.8,3.3-4.5,6-4c1.3,0.3,2.5,1.1,3.2,2.2
				c0.8,1.1,1,2.5,0.7,3.8C160.5,56.3,158.3,58,156,58z M151.9,52.1c-0.5,2.3,1,4.5,3.3,4.9c2.3,0.5,4.5-1,4.9-3.3
				c0.2-1.1,0-2.2-0.6-3.1c-0.6-0.9-1.6-1.6-2.7-1.8C154.6,48.3,152.3,49.8,151.9,52.1L151.9,52.1z"/>
		</g>
		<g id="XMLID_8_">
			<path id="XMLID_130_" d="M156,53.4c-0.1,0-0.3-0.1-0.4-0.2l-2.7-3.8c-0.1-0.2-0.1-0.5,0.1-0.6c0.2-0.1,0.5-0.1,0.6,0.1l2.7,3.8
				c0.1,0.2,0.1,0.5-0.1,0.6C156.2,53.3,156.1,53.4,156,53.4z"/>
		</g>
	</g>
	<g id="XMLID_17_">
		<g id="XMLID_10_">
			<path id="XMLID_127_" d="M176.5,58C176.5,58,176.5,58,176.5,58c-1.4,0-2.7-0.5-3.6-1.5c-1-1-1.5-2.2-1.5-3.6
				c0-1.4,0.5-2.6,1.5-3.6c2-2,5.2-2,7.2,0c2,2,2,5.2,0,7.2C179.2,57.5,177.9,58,176.5,58z M176.5,48.7c-1.1,0-2.1,0.4-3,1.2
				c-0.8,0.8-1.2,1.8-1.2,3c0,1.1,0.4,2.2,1.2,3c0.8,0.8,1.8,1.2,3,1.2c0,0,0,0,0,0c1.1,0,2.2-0.4,2.9-1.2c1.6-1.6,1.6-4.3,0-5.9
				C178.7,49.1,177.6,48.7,176.5,48.7z"/>
		</g>
		<g id="XMLID_9_">
			<path id="XMLID_126_" d="M176.5,53.4c-0.3,0-0.5-0.2-0.5-0.5v-4.6c0-0.3,0.2-0.5,0.5-0.5s0.5,0.2,0.5,0.5v4.6
				C177,53.2,176.8,53.4,176.5,53.4z"/>
		</g>
	</g>
	<g id="XMLID_5_">
		<g id="XMLID_16_">
			<path id="XMLID_123_" d="M197.1,58c-1.3,0-2.5-0.5-3.4-1.3c-1-0.9-1.6-2.2-1.7-3.5c-0.1-1.4,0.4-2.7,1.3-3.7
				c0.9-1,2.2-1.6,3.5-1.7c2.8-0.1,5.2,2,5.4,4.8c0.1,2.8-2,5.2-4.8,5.4l0-0.5l0,0.5C197.2,58,197.1,58,197.1,58z M197.1,48.7
				c-0.1,0-0.1,0-0.2,0c-2.3,0.1-4.1,2.1-4,4.4c0.1,1.1,0.5,2.1,1.4,2.9c0.8,0.7,1.9,1.1,3,1.1c2.3-0.1,4.1-2.1,4-4.4
				C201.1,50.5,199.3,48.7,197.1,48.7z"/>
		</g>
		<g id="XMLID_11_">
			<path id="XMLID_122_" d="M193.8,56.7c-0.1,0-0.2,0-0.3-0.1c-0.2-0.2-0.2-0.5,0-0.7l3.2-3.4c0.2-0.2,0.5-0.2,0.7,0
				c0.2,0.2,0.2,0.5,0,0.7l-3.2,3.4C194.1,56.7,194,56.7,193.8,56.7z"/>
		</g>
	</g>
	<g id="XMLID_21_">
		<path id="XMLID_121_" d="M192.4,53.4h-11.3c-0.3,0-0.5-0.2-0.5-0.5s0.2-0.5,0.5-0.5h11.3c0.3,0,0.5,0.2,0.5,0.5
			S192.7,53.4,192.4,53.4z"/>
	</g>
	<g id="XMLID_20_">
		<path id="XMLID_120_" d="M214.5,53.4h-12.8c-0.3,0-0.5-0.2-0.5-0.5s0.2-0.5,0.5-0.5h12.8c0.3,0,0.5,0.2,0.5,0.5
			S214.7,53.4,214.5,53.4z"/>
	</g>
	<g id="XMLID_23_">
		<path id="XMLID_119_" d="M171.9,53.4h-11.3c-0.3,0-0.5-0.2-0.5-0.5s0.2-0.5,0.5-0.5h11.3c0.3,0,0.5,0.2,0.5,0.5
			S172.1,53.4,171.9,53.4z"/>
	</g>
	<g id="XMLID_22_">
		<path id="XMLID_118_" d="M214.5,55.4c-0.3,0-0.5-0.2-0.5-0.5v-4c0-0.3,0.2-0.5,0.5-0.5c0.3,0,0.5,0.2,0.5,0.5v4
			C214.9,55.2,214.7,55.4,214.5,55.4z"/>
	</g>
	<g id="XMLID_24_">
		<path id="XMLID_117_" d="M218.5,57.4c-0.3,0-0.5-0.2-0.5-0.5v-8c0-0.3,0.2-0.5,0.5-0.5c0.3,0,0.5,0.2,0.5,0.5v8
			C219,57.2,218.8,57.4,218.5,57.4z"/>
	</g>
	<g id="XMLID_25_">
		<path id="XMLID_4_" d="M222.6,59.7c-0.3,0-0.5-0.2-0.5-0.5V46.5c0-0.3,0.2-0.5,0.5-0.5c0.3,0,0.5,0.2,0.5,0.5v12.8
			C223.1,59.5,222.9,59.7,222.6,59.7z"/>
	</g>
</g>
</svg>
