<?xml version="1.0" encoding="utf-8"?>
<!-- Generator: Adobe Illustrator 19.0.0, SVG Export Plug-In . SVG Version: 6.00 Build 0)  -->
<svg version="1.1" xmlns="http://www.w3.org/2000/svg" xmlns:xlink="http://www.w3.org/1999/xlink" x="0px" y="0px"
	 viewBox="0 0 423 422.3" style="enable-background:new 0 0 423 422.3;" xml:space="preserve">
<style type="text/css">
	.st0{fill:#FFFBD9;}
	.st1{fill:#EBE6C8;}
	.st2{fill:#D8D4B9;}
	.st3{fill:#FFFFFF;}
	.st4{fill:#E0E0E0;}
	.st5{fill:#9E8659;}
	.st6{opacity:0.71;}
</style>
<g id="Livello_2">
	<rect id="XMLID_1_" x="1" class="st0" width="422" height="211.2"/>
	<rect id="XMLID_3_" x="1" y="196.5" class="st1" width="422" height="225.9"/>
</g>
<g id="Livello_3">
	<path id="XMLID_76_" class="st2" d="M288.4,319.6l8.2-16.6l-187.5-8.9L1,329.3v93.1h237l41.2-83.9c23.4,5.7,35.4,40.1,26.9,77.1
		c-0.6,2.6-1.1,4.4-1.8,6.8h23.2c0.2-0.8,0.3-1,0.4-1.8C338.3,375.3,320.8,332.2,288.4,319.6z"/>
</g>
<g id="Livello_1">
	<g id="XMLID_8_">
		<g id="XMLID_11_">
			<path id="XMLID_25_" class="st3" d="M313,107c27.6,0,50,38.1,50,85.1c0,47-22.4,85.1-50,85.1c-5.7,0-11.3-1.6-16.4-4.7v-26.8
				c5.2,7.4,11.5,11.8,18.2,11.8c17.6,0,31.9-29.3,31.9-65.3c0-36.1-14.3-65.3-31.9-65.3c-6.8,0-13.1,4.3-18.2,11.7v-26.8
				C301.7,108.7,307.2,107,313,107z"/>
			<path id="XMLID_14_" class="st3" d="M296.6,272.5v21.6c0,22.8-42,41.2-93.8,41.2c-51.8,0-93.7-18.5-93.7-41.2V98.8
				c0-22.8,42-41.2,93.7-41.2c51.8,0,93.8,18.5,93.8,41.2v12.8v26.8v107.2V272.5z M276.4,112.8c4.2-4.3,6.5-9,6.5-13.9
				c0-19.5-35.9-35.2-80.1-35.2s-80.1,15.8-80.1,35.2c0,5,2.3,9.7,6.5,13.9c12.3,12.5,40.6,21.3,73.6,21.3S264.2,125.3,276.4,112.8z
				"/>
			<path id="XMLID_13_" class="st4" d="M283,98.8c0,5-2.3,9.7-6.5,13.9c-12.3-12.5-40.6-21.3-73.6-21.3s-61.3,8.8-73.6,21.3
				c-4.2-4.3-6.5-9-6.5-13.9c0-19.5,35.9-35.2,80.1-35.2S283,79.4,283,98.8z"/>
			<path id="XMLID_12_" class="st5" d="M276.4,112.8c-12.3,12.5-40.6,21.3-73.6,21.3s-61.3-8.8-73.6-21.3
				c12.3-12.5,40.6-21.3,73.6-21.3S264.2,100.2,276.4,112.8z"/>
		</g>
	</g>
	<g id="XMLID_27_" class="st6">
		<path id="XMLID_41_" class="st3" d="M217.2,115.8c0,0,0,0.1,0,0.3c0,0.1-0.1,0.2-0.2,0.4c-0.1,0.1-0.2,0.3-0.4,0.4
			c-0.6,0.5-1.7,1-3,1.4c-1.3,0.4-2.9,0.7-4.6,0.9c-0.9,0.1-1.7,0.2-2.6,0.2c-0.9,0-1.8,0.1-2.7,0.1c-0.9,0-1.8,0-2.7-0.1
			c-0.9,0-1.8-0.1-2.6-0.2c-1.7-0.2-3.3-0.5-4.6-0.9c-1.3-0.4-2.4-0.9-3-1.4c-0.2-0.1-0.3-0.3-0.4-0.4c-0.1-0.1-0.1-0.3-0.2-0.4
			c0-0.2,0-0.3,0-0.3s0,0.1,0.1,0.3c0.1,0.1,0.1,0.2,0.2,0.3c0.1,0.1,0.2,0.2,0.4,0.3c0.3,0.2,0.8,0.4,1.3,0.6
			c0.5,0.2,1.1,0.3,1.8,0.4c1.3,0.3,2.9,0.4,4.6,0.6c0.8,0.1,1.7,0.1,2.6,0.1c0.9,0,1.8,0,2.7,0c0.9,0,1.8,0,2.7,0
			c0.9,0,1.8-0.1,2.6-0.1c0.8-0.1,1.7-0.1,2.4-0.2c0.8-0.1,1.5-0.2,2.1-0.3c0.7-0.1,1.3-0.3,1.8-0.4c0.5-0.2,1-0.4,1.3-0.6
			c0.2-0.1,0.3-0.2,0.4-0.3c0.1-0.1,0.2-0.2,0.2-0.3C217.1,115.9,217.2,115.8,217.2,115.8z"/>
	</g>
	<g id="XMLID_22_" class="st6">
		<path id="XMLID_39_" class="st3" d="M231.5,116.4c0,0,0,0.2-0.1,0.7c-0.1,0.4-0.4,1-1,1.6c-1.2,1.2-3.4,2.3-6.1,3.1
			c-2.7,0.9-6,1.6-9.5,2c-3.5,0.4-7.3,0.7-11.1,0.7c-3.8,0-7.6-0.3-11.1-0.7c-3.5-0.4-6.8-1.2-9.5-2c-2.7-0.9-4.9-2-6.1-3.1
			c-0.6-0.6-0.9-1.2-1-1.6c-0.1-0.4-0.1-0.7-0.1-0.7c0,0,0,0.2,0.1,0.7c0.1,0.4,0.5,1,1.1,1.5c1.2,1.1,3.4,2,6.1,2.7
			c2.7,0.8,6,1.3,9.4,1.7c3.5,0.4,7.3,0.6,11,0.6c3.8,0,7.5-0.2,11-0.6c3.5-0.4,6.7-0.9,9.4-1.7c2.7-0.8,4.9-1.7,6.1-2.7
			c0.6-0.5,1-1.1,1.1-1.5C231.5,116.6,231.4,116.4,231.5,116.4z"/>
	</g>
	<g id="XMLID_21_" class="st6">
		<path id="XMLID_37_" class="st3" d="M246.4,116.4c0,0,0,0.1,0,0.3c0,0.1,0,0.2,0,0.3c0,0.1-0.1,0.3-0.1,0.4
			c-0.2,0.7-0.7,1.6-1.6,2.4c-0.9,0.9-2.3,1.7-3.8,2.5c-1.6,0.8-3.5,1.5-5.5,2.2c-4.2,1.3-9.2,2.3-14.6,3c-5.4,0.7-11.2,1-17,1
			c-5.8,0-11.6-0.4-17-1c-5.4-0.7-10.4-1.7-14.6-3c-2.1-0.6-4-1.4-5.5-2.2c-1.6-0.8-2.9-1.6-3.8-2.5c-0.9-0.9-1.4-1.8-1.6-2.4
			c0-0.2-0.1-0.3-0.1-0.4c0-0.1,0-0.2,0-0.3c0-0.2,0-0.3,0-0.3s0,0.1,0,0.3c0,0.1,0,0.2,0,0.3c0,0.1,0.1,0.3,0.1,0.4
			c0.2,0.6,0.8,1.5,1.7,2.3c1.9,1.7,5.3,3.1,9.4,4.3c4.2,1.2,9.2,2.1,14.5,2.7c5.4,0.6,11.2,0.9,16.9,0.9c5.8,0,11.6-0.3,16.9-0.9
			c5.4-0.6,10.4-1.5,14.5-2.7c4.1-1.2,7.5-2.6,9.4-4.3c0.9-0.8,1.5-1.7,1.7-2.3c0-0.2,0.1-0.3,0.1-0.4c0-0.1,0-0.2,0-0.3
			C246.4,116.5,246.4,116.4,246.4,116.4z"/>
	</g>
	<g id="XMLID_20_">
		<path id="XMLID_42_" class="st3" d="M265.5,116.4c0,0,0,0.1,0,0.4c0,0.1,0,0.3,0,0.5c0,0.2-0.1,0.4-0.1,0.6
			c-0.2,1-0.9,2.3-2.3,3.6c-2.6,2.7-7.5,5.1-13.5,7.1c-6,1.9-13.3,3.5-21.2,4.5c-7.9,1-16.3,1.5-24.7,1.5c-8.4,0-16.9-0.5-24.7-1.5
			c-7.9-1-15.1-2.6-21.2-4.5c-6-2-10.9-4.4-13.5-7.1c-1.3-1.3-2-2.6-2.3-3.6c-0.1-0.2-0.1-0.5-0.1-0.6c0-0.2,0-0.3,0-0.5
			c0-0.3,0-0.4,0-0.4s0,0.1,0,0.4c0,0.1,0,0.3,0.1,0.5c0,0.2,0.1,0.4,0.2,0.6c0.3,0.9,1,2.2,2.4,3.5c1.3,1.3,3.2,2.5,5.5,3.6
			c2.3,1.1,5,2.1,8,3.1c6,1.8,13.3,3.2,21.1,4.2c7.8,1,16.2,1.4,24.6,1.4c8.4,0,16.8-0.4,24.6-1.4c7.8-1,15.1-2.3,21.1-4.2
			c3-0.9,5.7-2,8-3.1c2.3-1.1,4.2-2.3,5.5-3.6c1.3-1.3,2.1-2.5,2.4-3.5c0.1-0.2,0.1-0.4,0.2-0.6c0-0.2,0-0.3,0.1-0.5
			C265.5,116.5,265.5,116.4,265.5,116.4z"/>
	</g>
	<g id="XMLID_19_" class="st6">
		<path id="XMLID_35_" class="st3" d="M189.8,115.8c0,0,0-0.1,0-0.3c0-0.1,0.1-0.2,0.2-0.4c0.1-0.1,0.2-0.3,0.4-0.4
			c0.6-0.6,1.7-1.1,3-1.5c1.3-0.4,2.9-0.8,4.7-1c0.9-0.1,1.8-0.2,2.7-0.3c0.9,0,1.8-0.1,2.8-0.1c0.9,0,1.8,0,2.8,0.1
			c0.9,0.1,1.8,0.2,2.7,0.3c1.7,0.2,3.3,0.6,4.7,1c1.3,0.4,2.4,1,3,1.5c0.1,0.2,0.3,0.3,0.4,0.4c0.1,0.1,0.1,0.3,0.2,0.4
			c0,0.2,0,0.3,0,0.3s0-0.1-0.1-0.3c0-0.1-0.1-0.2-0.2-0.3c-0.1-0.1-0.2-0.2-0.4-0.3c-0.3-0.2-0.7-0.4-1.3-0.6
			c-0.5-0.2-1.1-0.4-1.8-0.5c-1.3-0.3-2.9-0.5-4.6-0.7c-0.8-0.1-1.7-0.1-2.6-0.2c-0.9,0-1.8-0.1-2.7-0.1c-0.9,0-1.8,0-2.7,0.1
			c-0.9,0-1.8,0.1-2.6,0.2c-1.7,0.2-3.3,0.4-4.6,0.7c-0.7,0.2-1.3,0.3-1.8,0.5c-0.5,0.2-0.9,0.4-1.3,0.6c-0.1,0.1-0.3,0.2-0.4,0.3
			c-0.1,0.1-0.2,0.2-0.2,0.3C189.9,115.7,189.8,115.8,189.8,115.8z"/>
	</g>
	<g id="XMLID_26_" class="st6">
		<path id="XMLID_33_" class="st3" d="M175.8,116.5c0,0,0-0.2,0.1-0.7c0.1-0.4,0.4-1.1,0.9-1.7c1.1-1.3,3.3-2.5,6-3.5
			c2.7-1,6-1.8,9.6-2.2c3.6-0.5,7.4-0.8,11.2-0.8c3.8,0,7.7,0.3,11.2,0.8c3.6,0.5,6.9,1.3,9.6,2.2c2.7,1,4.9,2.2,6,3.5
			c0.6,0.6,0.9,1.3,0.9,1.7c0.1,0.4,0.1,0.7,0.1,0.7c0,0,0-0.2-0.1-0.7c-0.1-0.4-0.4-1-1-1.6c-1.2-1.2-3.3-2.2-6-3.1
			c-2.7-0.9-6-1.5-9.5-1.9c-3.5-0.4-7.3-0.7-11.1-0.6c-3.8,0-7.6,0.2-11.1,0.6c-3.5,0.4-6.8,1.1-9.5,1.9c-2.7,0.9-4.9,1.9-6,3.1
			c-0.6,0.6-0.9,1.2-1,1.6C175.8,116.2,175.8,116.5,175.8,116.5z"/>
	</g>
	<g id="XMLID_23_" class="st6">
		<path id="XMLID_31_" class="st3" d="M160.8,116.5c0,0,0-0.1,0-0.3c0-0.2,0-0.4,0.1-0.8c0.2-0.7,0.6-1.6,1.5-2.6
			c1.8-1.9,5.1-3.8,9.2-5.2c4.2-1.5,9.2-2.6,14.7-3.4c5.5-0.7,11.4-1.1,17.2-1.2c5.9,0,11.8,0.4,17.2,1.2c5.5,0.7,10.5,1.9,14.7,3.4
			c4.2,1.4,7.5,3.3,9.2,5.2c0.9,1,1.3,1.9,1.5,2.6c0.1,0.3,0.1,0.6,0.1,0.8c0,0.2,0,0.3,0,0.3s0-0.1,0-0.3c0-0.2,0-0.4-0.1-0.8
			c-0.2-0.7-0.7-1.6-1.6-2.5c-0.9-0.9-2.2-1.8-3.7-2.6c-1.6-0.8-3.4-1.5-5.5-2.2c-4.2-1.4-9.2-2.3-14.6-3c-5.4-0.7-11.3-1-17.1-1
			c-5.8,0-11.7,0.3-17.1,1c-5.4,0.7-10.5,1.7-14.6,3c-2.1,0.7-3.9,1.4-5.5,2.2c-1.6,0.8-2.9,1.7-3.7,2.6c-0.9,0.9-1.4,1.8-1.6,2.5
			c-0.1,0.3-0.1,0.6-0.1,0.8C160.9,116.4,160.8,116.5,160.8,116.5z"/>
	</g>
	<g id="XMLID_18_" class="st6">
		<path id="XMLID_28_" class="st3" d="M141.8,116.5c0,0,0-0.1,0-0.4c0-0.3,0-0.6,0.2-1.1c0.2-1,0.9-2.3,2.2-3.7
			c1.3-1.4,3.1-2.8,5.4-4c2.3-1.3,5-2.4,8-3.5c3-1.1,6.4-2,9.9-2.8c3.6-0.8,7.4-1.5,11.3-2c7.9-1.1,16.4-1.6,24.9-1.6
			c4.2,0,8.5,0.2,12.7,0.4c4.2,0.3,8.3,0.7,12.2,1.2c4,0.5,7.8,1.2,11.3,2c3.6,0.8,6.9,1.7,9.9,2.8c3,1,5.7,2.2,8,3.5
			c2.3,1.3,4.1,2.6,5.4,4c1.3,1.4,1.9,2.7,2.2,3.7c0.1,0.5,0.2,0.9,0.2,1.1c0,0.3,0,0.4,0,0.4s0-0.1,0-0.4c0-0.3,0-0.6-0.2-1.1
			c-0.3-1-0.9-2.3-2.2-3.6c-1.3-1.3-3.1-2.6-5.4-3.8c-2.3-1.2-5-2.3-8-3.3c-6-2-13.3-3.4-21.2-4.5c-3.9-0.5-8-0.9-12.2-1.1
			c-4.2-0.3-8.4-0.4-12.6-0.4c-8.5,0-16.9,0.5-24.8,1.5c-7.9,1-15.2,2.5-21.2,4.5c-3,1-5.7,2.1-8,3.3c-2.3,1.2-4.1,2.5-5.4,3.8
			c-1.3,1.3-2,2.6-2.2,3.6c-0.2,0.5-0.2,0.9-0.2,1.1C141.8,116.3,141.8,116.5,141.8,116.5z"/>
	</g>
</g>
</svg>
